<?xml version="1.0" standalone="no"?><!DOCTYPE svg PUBLIC "-//W3C//DTD SVG 1.1//EN" "http://www.w3.org/Graphics/SVG/1.1/DTD/svg11.dtd"><svg t="1587542327542" class="icon" viewBox="0 0 1024 1024" version="1.1" xmlns="http://www.w3.org/2000/svg" p-id="6915" xmlns:xlink="http://www.w3.org/1999/xlink" width="200" height="200"><defs><style type="text/css"></style></defs><path d="M725.333333 469.333333H298.666667c-23.466667 0-42.666667-19.2-42.666667-42.666666s19.2-42.666667 42.666667-42.666667h426.666666c23.466667 0 42.666667 19.2 42.666667 42.666667s-19.2 42.666667-42.666667 42.666666zM725.333333 640H298.666667c-23.466667 0-42.666667-19.2-42.666667-42.666667s19.2-42.666667 42.666667-42.666666h426.666666c23.466667 0 42.666667 19.2 42.666667 42.666666s-19.2 42.666667-42.666667 42.666667zM512 810.666667H298.666667c-23.466667 0-42.666667-19.2-42.666667-42.666667s19.2-42.666667 42.666667-42.666667h213.333333c23.466667 0 42.666667 19.2 42.666667 42.666667s-19.2 42.666667-42.666667 42.666667z" fill="#36D1EB" p-id="6916"></path><path d="M789.333333 981.333333H234.666667c-70.4 0-128-57.6-128-128V256c0-70.4 57.6-128 128-128 23.466667 0 42.666667 19.2 42.666666 42.666667s-19.2 42.666667-42.666666 42.666666-42.666667 19.2-42.666667 42.666667v597.333333c0 23.466667 19.2 42.666667 42.666667 42.666667h554.666666c23.466667 0 42.666667-19.2 42.666667-42.666667V256c0-23.466667-19.2-42.666667-42.666667-42.666667s-42.666667-19.2-42.666666-42.666666 19.2-42.666667 42.666666-42.666667c70.4 0 128 57.6 128 128v597.333333c0 70.4-57.6 128-128 128z" fill="#0558FF" p-id="6917"></path><path d="M576 298.666667h-128c-70.4 0-128-57.6-128-128s57.6-128 128-128h128c70.4 0 128 57.6 128 128s-57.6 128-128 128z m-128-170.666667c-23.466667 0-42.666667 19.2-42.666667 42.666667s19.2 42.666667 42.666667 42.666666h128c23.466667 0 42.666667-19.2 42.666667-42.666666s-19.2-42.666667-42.666667-42.666667h-128z" fill="#0558FF" p-id="6918"></path></svg>