<?xml version="1.0" standalone="no"?><!DOCTYPE svg PUBLIC "-//W3C//DTD SVG 1.1//EN" "http://www.w3.org/Graphics/SVG/1.1/DTD/svg11.dtd"><svg t="1587540069387" class="icon" viewBox="0 0 1024 1024" version="1.1" xmlns="http://www.w3.org/2000/svg" p-id="3761" data-spm-anchor-id="a313x.7781069.0.i11" xmlns:xlink="http://www.w3.org/1999/xlink" width="200" height="200"><defs><style type="text/css"></style></defs><path d="M535.33 779.54h-291.5c-13.62 0-26.28-7.01-33.5-18.55-7.23-11.54-8-25.99-2.06-38.24l291.5-600.29c9.54-19.64 33.2-27.82 52.82-18.29 14.88 7.22 23.19 22.55 22.19 38.1 0.05 0.8 0.07 1.59 0.07 2.4v595.35c0.01 21.82-17.69 39.52-39.52 39.52z m-228.36-79.05h188.84V311.61L306.97 700.49zM528.84 931.67c-249.41 0-382.87-51.44-390.54-54.49-20.28-8.06-30.2-31.04-22.14-51.33 8.05-20.26 30.98-30.18 51.24-22.17 0.98 0.38 63.09 24.23 180.17 38.36 108.5 13.09 287.73 20.26 525.34-19.89 21.52-3.69 41.92 10.86 45.56 32.38 3.64 21.52-10.86 41.92-32.38 45.56-137.46 23.22-256.78 31.58-357.25 31.58zM836.71 779.54H640.73c-21.83 0-39.53-17.7-39.53-39.53V462.1c0-17.22 11.16-32.47 27.58-37.68 16.39-5.22 34.32 0.82 44.25 14.9l195.98 277.91c8.51 12.06 9.58 27.86 2.79 40.97a39.51 39.51 0 0 1-35.09 21.34z m-156.45-79.05h80.22l-80.22-113.76v113.76z" fill="#13227a" p-id="3762"></path></svg>