<?xml version="1.0" standalone="no"?><!DOCTYPE svg PUBLIC "-//W3C//DTD SVG 1.1//EN" "http://www.w3.org/Graphics/SVG/1.1/DTD/svg11.dtd"><svg t="1587542233815" class="icon" viewBox="0 0 1024 1024" version="1.1" xmlns="http://www.w3.org/2000/svg" p-id="4919" xmlns:xlink="http://www.w3.org/1999/xlink" width="200" height="200"><defs><style type="text/css"></style></defs><path d="M486.1184 240.64H256a10.24 10.24 0 0 0-10.24 10.24v233.7792a10.24 10.24 0 0 0 10.24 10.24h230.1184a10.24 10.24 0 0 0 10.24-10.24V250.88a10.24 10.24 0 0 0-10.24-10.24zM476.7232 464.6912a10.24 10.24 0 0 1-10.24 10.24H275.6352a10.24 10.24 0 0 1-10.24-10.24V270.848a10.24 10.24 0 0 1 10.24-10.24H466.4832a10.24 10.24 0 0 1 10.24 10.24v193.8432zM768 240.64h-230.1184a10.24 10.24 0 0 0-10.24 10.24v233.7792a10.24 10.24 0 0 0 10.24 10.24H768a10.24 10.24 0 0 0 10.24-10.24V250.88a10.24 10.24 0 0 0-10.24-10.24z m-9.3952 224.0512a10.24 10.24 0 0 1-10.24 10.24h-190.84288a10.24 10.24 0 0 1-10.24-10.24V270.848a10.24 10.24 0 0 1 10.24-10.24h190.84288a10.24 10.24 0 0 1 10.24 10.24v193.8432z" fill="#ffffff" p-id="4920"></path><path d="M772.51072 550.4768H251.4944a5.7344 5.7344 0 0 0-5.7344 5.7344v12.4928c0 3.16416 2.56512 5.7344 5.7344 5.7344h521.01632a5.7344 5.7344 0 0 0 5.72928-5.7344v-12.4928a5.7344 5.7344 0 0 0-5.72928-5.7344z m0 99.5072H251.4944a5.7344 5.7344 0 0 0-5.7344 5.72928v12.16512c0 3.16416 2.56512 5.7344 5.7344 5.7344h521.01632a5.7344 5.7344 0 0 0 5.72928-5.7344v-12.16512c0-3.16416-2.56512-5.72928-5.72928-5.72928z m0 99.1744H251.4944a5.7344 5.7344 0 0 0-5.7344 5.72928v12.49792a5.7344 5.7344 0 0 0 5.7344 5.72928h521.01632c3.16416 0 5.72928-2.56512 5.72928-5.72928v-12.49792c0-3.16416-2.56512-5.72928-5.72928-5.72928z" fill="#ffffff" p-id="4921"></path></svg>