<?xml version="1.0" standalone="no"?><!DOCTYPE svg PUBLIC "-//W3C//DTD SVG 1.1//EN" "http://www.w3.org/Graphics/SVG/1.1/DTD/svg11.dtd"><svg t="1590248759760" class="icon" viewBox="0 0 1024 1024" version="1.1" xmlns="http://www.w3.org/2000/svg" p-id="10611" xmlns:xlink="http://www.w3.org/1999/xlink" width="200" height="200"><defs><style type="text/css"></style></defs><path d="M742.980267 745.710933c-34.747733 39.936-89.224533 124.996267-184.968534 247.569067-14.677333 19.114667-37.239467 30.4128-61.2352 30.72a77.585067 77.585067 0 0 1-60.586666-30.446933C433.834667 990.3104 250.88 733.866667 250.88 733.866667 185.787733 660.343467 85.333333 513.024 85.333333 410.4192 85.333333 184.1152 266.752 0 497.322667 0c230.6048 0 418.269867 184.081067 418.269866 410.350933 0 132.5056-154.965333 314.845867-172.612266 335.36zM497.322667 63.8976c-194.696533 0-353.245867 155.4432-353.245867 346.453333 0.068267 82.909867 94.344533 224.119467 153.7024 294.0928 65.024 76.117333 184.0128 243.985067 189.064533 251.118934 2.2528 2.730667 5.495467 4.369067 9.0112 4.608a14.165333 14.165333 0 0 0 10.4448-6.178134c93.627733-119.808 149.333333-206.301867 186.9824-249.719466 75.741867-87.483733 157.149867-216.337067 157.149867-293.819734 0-191.044267-158.446933-346.487467-353.245867-346.487466l0.136534-0.068267z" fill="#126AFB" p-id="10612"></path><path d="M497.288533 188.757333c106.9056 0 194.218667 85.504 194.218667 190.702934 0 105.1648-86.869333 190.8736-194.218667 190.8736v-0.238934c-106.9056 0.238933-194.3552-85.469867-194.3552-190.634666 0-105.198933 87.4496-190.6688 194.3552-190.6688z m0 63.931734c-71.304533 0-129.262933 56.968533-129.262933 126.7712 0 69.768533 57.9584 126.737067 129.262933 126.737066 71.2704 0 129.297067-56.900267 129.297067-126.737066 0-69.870933-57.890133-126.7712-129.297067-126.7712z" fill="#13D9DF" p-id="10613"></path></svg>