<?xml version="1.0" standalone="no"?><!DOCTYPE svg PUBLIC "-//W3C//DTD SVG 1.1//EN" "http://www.w3.org/Graphics/SVG/1.1/DTD/svg11.dtd"><svg t="1590248747033" class="icon" viewBox="0 0 1024 1024" version="1.1" xmlns="http://www.w3.org/2000/svg" p-id="10373" xmlns:xlink="http://www.w3.org/1999/xlink" width="200" height="200"><defs><style type="text/css"></style></defs><path d="M320 128h384V64h64v64h192v768H64V128h192V64h64v64z m0 64v64H256V192H128v640h768V192h-128v64h-64V192H320z m64 437.568l72.704-7.552c2.048 16.448 8.192 29.44 18.432 39.04a50.048 50.048 0 0 0 73.984-4.096c10.56-12.416 15.872-31.04 15.872-56 0-23.36-5.248-40.832-15.744-52.544a52.352 52.352 0 0 0-40.896-17.536c-20.928 0-39.68 9.28-56.32 27.776l-59.2-8.576 37.376-198.08h192.896v68.288h-137.6l-11.392 64.64c16.256-8.128 32.896-12.16 49.856-12.16 32.32 0 59.776 11.712 82.304 35.264 22.464 23.552 33.728 54.08 33.728 91.648 0 31.36-9.088 59.264-27.264 83.84-24.768 33.6-59.136 50.432-103.04 50.432-35.2 0-63.808-9.472-85.952-28.352-22.144-18.816-35.392-44.16-39.744-76.032z" fill="#30C776" p-id="10374"></path></svg>