<?xml version="1.0" standalone="no"?><!DOCTYPE svg PUBLIC "-//W3C//DTD SVG 1.1//EN" "http://www.w3.org/Graphics/SVG/1.1/DTD/svg11.dtd"><svg t="1587539918870" class="icon" viewBox="0 0 1024 1024" version="1.1" xmlns="http://www.w3.org/2000/svg" p-id="776" xmlns:xlink="http://www.w3.org/1999/xlink" width="200" height="200"><defs><style type="text/css"></style></defs><path d="M187.392 789.504c-12.8 0-23.552 4.608-32.768 13.312-5.632 6.656-9.728 13.312-11.776 20.992-2.56 8.192-3.072 16.384-1.024 24.064 2.56 8.192 6.656 15.36 12.8 20.992 9.216 9.728 19.968 14.336 32.768 14.336 4.096 0 7.68-0.512 11.776-1.024 4.608-1.536 8.192-3.072 11.776-4.608 4.096-2.56 7.168-5.632 9.728-8.704 4.608-4.608 7.68-9.728 9.728-15.36 2.56-5.632 4.096-11.776 4.096-17.408s-1.024-11.776-3.072-17.408c-2.56-6.656-6.144-11.776-10.752-16.384-9.728-8.704-20.48-12.8-33.28-12.8z m17.408 62.976c-4.096 5.12-10.752 7.168-17.408 7.168-6.656 0-11.776-2.048-15.872-6.144-5.12-5.12-7.168-10.752-7.168-17.408 0-6.656 2.048-11.776 6.144-15.872 5.12-5.12 10.752-7.168 17.408-7.168 6.656 0 11.776 2.048 15.872 6.144 5.12 5.12 7.168 10.752 7.168 17.408 0 6.656-2.048 11.776-6.144 15.872zM923.136 209.408c-2.048-5.12-5.632-8.192-10.752-8.704-2.048-0.512-4.096-0.512-5.632 0-2.56 0.512-4.608 2.048-6.656 4.096l-125.44 126.464L680.96 234.496l125.44-126.464c1.536-1.536 2.048-3.072 3.072-4.608 0.512-2.56 1.024-5.12 1.024-7.68-1.536-5.12-4.096-8.704-8.704-10.752-27.136-10.752-55.296-16.384-84.992-16.384-61.952 0-114.688 22.016-158.208 66.56-39.424 39.936-60.928 88.064-64.512 144.896-3.072 50.688 8.704 97.28 35.84 139.776l-419.328 360.448c-15.36 15.872-24.064 34.816-24.064 56.832s7.68 40.96 23.04 56.832l22.016 23.04c7.68 7.68 16.384 13.312 26.112 17.408 9.728 4.096 19.456 5.632 29.696 5.632s20.48-2.048 29.696-5.632c9.728-4.096 18.432-10.24 26.112-17.92l373.76-416.256c15.36 8.192 31.744 14.336 48.128 18.432 17.408 4.096 34.816 5.632 52.224 5.632 61.952 0 114.176-22.016 157.184-66.56 32.768-32.768 53.248-72.192 61.952-117.76 8.704-45.056 4.096-88.576-13.312-130.56z m-63.488 228.864c-17.92 18.432-43.52 37.888-67.072 47.616-23.552 10.24-49.152 15.36-75.264 15.36-16.896 0-33.28-2.048-49.152-6.656-16.896-4.608-31.744-12.288-47.104-19.456-6.144-2.56-7.68-2.048-9.216-2.048h-0.512c-1.536 0-2.56 0.512-4.096 1.024l-4.096 4.096-381.44 423.936c-4.608 5.12-9.728 9.216-15.36 11.776-6.656 2.56-12.8 4.096-19.456 4.096s-12.8-1.536-18.432-4.096c-6.656-2.56-12.288-5.12-17.408-10.24l-27.136-28.16c-9.728-10.24-14.336-24.064-14.336-38.4-0.512-14.336 4.096-26.112 13.312-35.84l428.544-368.128c7.168-5.632 8.192-12.288 3.072-19.456-29.184-39.936-41.984-84.48-38.4-133.12 4.096-49.152 28.16-95.744 61.952-130.56 37.888-39.424 83.968-58.88 138.24-58.88 17.92 0 49.664 5.632 67.072 10.752l-123.392 117.248c-6.656 6.656-11.776 13.312-5.12 20.48l108.544 110.592c3.072 2.56 6.656 4.096 10.752 4.608 2.048 0 3.584-0.512 4.608-1.024 2.048-0.512 3.584-2.048 4.608-4.096L906.24 230.4c6.656 23.552 11.776 58.368 10.24 81.408s-6.656 45.568-16.384 67.584c-10.24 22.016-23.552 41.472-40.448 58.88zM173.056 324.608h59.904L404.48 495.616l15.36-15.36-175.616-174.592c-1.536-1.536-3.072-2.048-4.608-3.072-2.048-0.512-4.096-1.024-5.632-1.024H176.128L104.96 188.416l56.32-58.88L281.6 203.776v62.976c0.512 4.096 3.072 7.168 5.12 9.728l168.96 178.688 15.36-15.36L302.08 261.12V200.192c0-5.12-6.144-9.216-10.24-11.776L165.376 110.08c-6.656-3.072-12.288-2.56-17.408 2.048l-61.44 62.976c-5.12 5.12-5.632 10.752-2.048 17.408l76.288 125.44c3.072 4.608 7.168 6.656 12.288 6.656z m514.56 238.08c-9.216-9.728-20.48-14.336-33.792-14.336-5.632 0-11.776 1.536-17.408 4.096s-10.752 6.144-15.36 10.752l-14.336 14.336-10.752-11.776c-5.632-4.608-12.8-2.56-15.36 0-7.168 6.656-7.168 13.312 0 20.48l15.872 16.896c2.56 2.56 5.632 4.096 9.728 4.096 4.608 0 8.192-1.536 10.752-4.096l24.064-25.088c4.096-4.096 8.192-5.632 12.8-5.632 5.12 0 9.216 2.048 12.8 5.632l204.8 210.432c4.096 4.096 5.632 8.192 5.632 13.312s-2.048 9.728-5.632 13.312l-95.744 97.792c-3.072 4.096-7.168 5.632-12.8 5.632s-9.216-2.048-12.8-5.632l-204.8-210.432c-4.096-4.096-5.632-8.192-5.632-13.312s2.048-9.728 5.632-13.312l22.016-23.04c3.072-2.56 4.608-5.632 4.608-9.728s-1.536-7.168-4.608-9.728l-16.896-18.944c-7.168-6.656-13.824-6.656-20.48 0-7.168 7.168-2.048 13.824 4.096 20.48l8.192 8.192-12.8 12.8c-5.632 6.656-9.728 13.312-11.776 20.992-2.56 8.192-3.072 16.384-1.024 24.064 2.56 8.192 6.656 15.36 12.8 20.992l199.68 206.336c4.608 4.608 9.216 7.68 14.336 9.728 5.632 2.56 11.776 4.096 18.432 4.096s12.288-1.024 17.408-3.072c5.632-2.56 10.752-6.144 15.36-10.752l91.648-93.696c9.216-9.216 13.312-19.968 13.312-32.768s-4.608-24.064-13.312-33.792l-198.656-205.312z" fill="#ffffff" p-id="777"></path></svg>