<?xml version="1.0" standalone="no"?><!DOCTYPE svg PUBLIC "-//W3C//DTD SVG 1.1//EN" "http://www.w3.org/Graphics/SVG/1.1/DTD/svg11.dtd"><svg t="1587542093443" class="icon" viewBox="0 0 1024 1024" version="1.1" xmlns="http://www.w3.org/2000/svg" p-id="3145" xmlns:xlink="http://www.w3.org/1999/xlink" width="200" height="200"><defs><style type="text/css"></style></defs><path d="M354.55 557.5h0.16c30.37-0.43 36.93-26.97 38.34-38.81 0.27-1.9 0.4-3.83 0.38-5.8 0.06-205.36 66.79-336.41 112.73-336.41 20.76 0 40.38 0 65.72 71.3 7.24 20.38 29.65 31.05 50.02 23.79 20.38-7.24 31.03-29.64 23.79-50.02-31.15-87.65-71.58-123.4-139.53-123.4-123 0-189.87 210.05-191.05 409.66-0.42 3.78-0.37 6.39-0.35 6.81 1.18 41.95 36.7 42.88 39.79 42.88z" fill="#ffffff" p-id="3146"></path><path d="M786.89 595.89c-18.65 11.9-24.11 36.66-12.21 55.3 31.81 49.84 22.94 63.62 14.37 76.93-5.61 8.7-17.27 26.84-81.53 18.25-0.08-0.01-0.16 0-0.25-0.01-0.99-0.12-1.92-0.39-2.93-0.44-11.96-0.57-24.03-1.98-36.08-4.06 18.05-61.58 28.97-137.97 28.97-228.71l0.01-11.33c0.05-32.43 0.07-47.23-4.64-82.91-2.83-21.45-22.58-36.51-43.96-33.7-21.44 2.83-36.53 22.51-33.7 43.96 4.03 30.52 4.02 41.11 3.97 72.55l-0.01 11.44c0 82.09-10.98 152.49-27.12 207.39-83.83-31.25-151.78-79.98-152.74-80.68-0.62-0.45-1.3-0.72-1.93-1.13l0.09-0.14c-1.89-1.22-3.76-2.43-5.63-3.66-0.8-0.57-1.63-1.11-2.48-1.63 0 0-0.03-0.02-0.04-0.03-169.13-111.43-242.39-238.97-218.24-279.01 9.14-15.15 13.75-22.74 60.06-18.42 22.08 2.03 41.55-14.12 43.61-36.14 2.06-22.03-14.12-41.55-36.14-43.61-57.87-5.43-103.16 2.17-136.11 56.8-49.77 82.49 20.24 243.53 250.12 392.1 0.19 0.12 0.38 0.24 0.57 0.37 9.75 6.99 79.96 56.18 169.27 89.63-18.85 34.95-39.52 54.33-57.15 54.85-21.96 0.64-62.79 1.84-85.49-103.85-4.55-21.15-25.4-34.64-46.52-30.07-21.15 4.54-34.61 25.37-30.07 46.52 23.64 110.03 77.11 165.77 158.99 165.77 1.77 0 3.56-0.03 5.36-0.08 47.79-1.39 95.85-38.9 131.68-110.43 18.97 4.02 38.23 6.81 57.48 7.96 0.16 0.02 0.29 0.09 0.45 0.11 8.82 1.18 23.25 3.1 40.3 3.1 37.74 0 88.3-9.45 119.17-57.38 31.73-49.25 27.48-98.12-14.18-163.4-11.91-18.65-36.69-24.11-55.32-12.21z" fill="#ffffff" p-id="3147"></path><path d="M284.98 722.95c-67.59 6.02-72.76-9.3-77.75-24.11-3.07-9.1-5.96-17.69 21.48-70.76 10.16-19.65 2.47-43.81-17.18-53.97-19.65-10.15-43.81-2.47-53.97 17.18-29.16 56.4-40.53 90.71-26.23 133.12 22.11 65.61 75.59 79.93 127.7 79.93 11.18 0 22.32-0.66 33.05-1.62 22.03-1.96 38.31-21.41 36.35-43.44-1.97-22.01-21.35-38.28-43.45-36.33zM436.69 349.54c-18.3 10.66-25.22 33.92-15.4 52.96 10.15 19.65 34.3 27.36 53.96 17.22 0.83-0.43 1.9-0.98 3.12-1.68 220.87-81.87 318.97-70.82 335.85-36.4 11.01 22.47-11.19 76.67-85.96 142.56-16.6 14.62-18.19 39.93-3.57 56.53 7.92 8.99 18.96 13.57 30.06 13.57 9.41 0 18.85-3.3 26.46-10 98.33-86.65 136.57-173.37 104.93-237.92-46.16-94.15-189.27-95.05-437.49-2.75-2.79 1.04-7.29 2.72-11.96 5.91z" fill="#ffffff" p-id="3148"></path><path d="M433.67 536.23c0 39.52 32.15 71.67 71.67 71.67s71.67-32.15 71.67-71.67-32.15-71.67-71.67-71.67-71.67 32.15-71.67 71.67z" fill="#ffffff" p-id="3149"></path></svg>