<?xml version="1.0" standalone="no"?><!DOCTYPE svg PUBLIC "-//W3C//DTD SVG 1.1//EN" "http://www.w3.org/Graphics/SVG/1.1/DTD/svg11.dtd"><svg t="1587542159670" class="icon" viewBox="0 0 1024 1024" version="1.1" xmlns="http://www.w3.org/2000/svg" p-id="4355" xmlns:xlink="http://www.w3.org/1999/xlink" width="200" height="200"><defs><style type="text/css"></style></defs><path d="M420.6 468.2h-268c-28.8 0-52.2-23.4-52.2-52.2V150c0-26.7 21.7-48.4 48.4-48.4h271.8c26.7 0 48.4 21.7 48.4 48.4v269.8c0 26.7-21.7 48.4-48.4 48.4z m-268-314.4V416h264.2V153.8H152.6zM420.6 923.2h-268c-28.8 0-52.2-23.4-52.2-52.2V605c0-26.7 21.7-48.4 48.4-48.4h271.8c26.7 0 48.4 21.7 48.4 48.4v269.8c0 26.7-21.7 48.4-48.4 48.4z m-268-314.4V871h264.2V608.8H152.6zM881.5 468.2h-268c-28.8 0-52.2-23.4-52.2-52.2V150c0-26.7 21.7-48.4 48.4-48.4h271.8c26.7 0 48.4 21.7 48.4 48.4v269.8c0 26.7-21.7 48.4-48.4 48.4z m-268-314.4V416h264.2V153.8H613.5z" fill="#ffffff" p-id="4356"></path><path d="M733.9 925.1c-99.4 0-180.4-80.9-180.4-180.4s80.9-180.4 180.4-180.4 180.4 80.9 180.4 180.4-81 180.4-180.4 180.4z m0-308.5c-70.7 0-128.2 57.5-128.2 128.2S663.2 873 733.9 873s128.2-57.5 128.2-128.2-57.5-128.2-128.2-128.2z" fill="#ffffff" p-id="4357"></path></svg>