<?xml version="1.0" standalone="no"?><!DOCTYPE svg PUBLIC "-//W3C//DTD SVG 1.1//EN" "http://www.w3.org/Graphics/SVG/1.1/DTD/svg11.dtd"><svg t="1587541876365" class="icon" viewBox="0 0 1024 1024" version="1.1" xmlns="http://www.w3.org/2000/svg" p-id="2785" xmlns:xlink="http://www.w3.org/1999/xlink" width="200" height="200"><defs><style type="text/css"></style></defs><path d="M928.66 756.84c-69.22-69.22-103.83-173.05-138.44-346.11-29.99-149.93-123.99-276.89-276.89-276.89s-246.91 126.97-276.89 276.9C201.83 583.79 167.22 687.62 98 756.84h317.53c-3.84 10.84-6.03 22.46-6.03 34.61 0 57.34 46.49 103.83 103.83 103.83s103.83-46.49 103.83-103.83c0-12.15-2.2-23.77-6.03-34.61h317.53zM304.32 424.31c10.38-51.9 56.13-221.24 209.01-221.24s198.63 169.34 209.01 221.24c21.45 107.29 43.52 193.33 76.34 263.32h-570.7c32.82-70 54.89-156.04 76.34-263.32z m243.62 367.15c0 19.09-15.52 34.61-34.61 34.61s-34.61-15.52-34.61-34.61 15.52-34.61 34.61-34.61c19.09-0.01 34.61 15.52 34.61 34.61z" fill="#ffffff" p-id="2786"></path></svg>