<?xml version="1.0" standalone="no"?><!DOCTYPE svg PUBLIC "-//W3C//DTD SVG 1.1//EN" "http://www.w3.org/Graphics/SVG/1.1/DTD/svg11.dtd"><svg t="1590248547221" class="icon" viewBox="0 0 1024 1024" version="1.1" xmlns="http://www.w3.org/2000/svg" p-id="10254" xmlns:xlink="http://www.w3.org/1999/xlink" width="200" height="200"><defs><style type="text/css"></style></defs><path d="M874.328867 173.11961h-724.657734c-43.778806 0-80.448234 38.540317-80.448234 84.688916v508.382948c0 47.021681 36.669428 84.688916 80.448234 84.688916h724.533008c44.776614 0 80.448234-38.540317 80.448234-84.688916V257.808526c0.124726-47.021681-35.67162-84.688916-80.323508-84.688916z m-724.657734 42.282095h724.533008c4.490134 0 9.85335 0 14.343484 1.870889L539.68916 584.465773c-8.107186 8.481364-17.83581 12.223143-27.68916 12.223143-9.85335 0-20.579781-4.739586-27.68916-12.223143L135.452375 217.272594c4.490134-1.870889 10.726431-1.870889 14.218758-1.870889zM109.509379 766.191474V251.198051l249.576614 260.801949L109.509379 772.801949v-6.610475z m764.819488 42.406821h-724.657734c-3.617052 0-9.85335 0-14.343484-1.870889l251.322777-264.543728 67.97564 71.592692c16.089647 16.962728 35.796346 25.444093 56.376126 25.444093 20.579781 0 40.28648-8.481364 56.376127-23.573204l67.97564-72.465773 251.322777 264.543727c-2.619245 0.873082-7.98246 0.873082-12.347869 0.873082z m40.161754-42.406821v6.610475L664.914007 512l249.576614-260.801949v514.993423z m0 0" fill="#0DAAF6" p-id="10255"></path></svg>